<?xml version="1.0" standalone="no"?>
<!DOCTYPE svg PUBLIC "-//W3C//DTD SVG 20010904//EN"
 "http://www.w3.org/TR/2001/REC-SVG-20010904/DTD/svg10.dtd">
<svg version="1.0" xmlns="http://www.w3.org/2000/svg"
 width="16.000000pt" height="16.000000pt" viewBox="0 0 16.000000 16.000000"
 preserveAspectRatio="xMidYMid meet">
<metadata>
Created by potrace 1.11, written by Peter Selinger 2001-2013
</metadata>
<g transform="translate(0.000000,16.000000) scale(0.001563,-0.001563)"
fill="#000000" stroke="none">
<path d="M4103 9594 c3 -3 -11 -31 -32 -63 -41 -59 -52 -77 -371 -571 -112
-173 -226 -351 -255 -395 -29 -44 -143 -222 -255 -395 -112 -173 -222 -344
-245 -380 -23 -36 -125 -193 -226 -350 -299 -462 -520 -804 -581 -897 -32 -49
-67 -104 -78 -123 -11 -19 -101 -159 -199 -310 -204 -313 -321 -494 -336 -518
-5 -9 -26 -42 -46 -72 -20 -30 -100 -153 -177 -273 l-141 -218 28 -47 c15 -26
67 -110 114 -187 48 -77 91 -147 96 -155 6 -8 45 -71 88 -140 43 -69 82 -133
88 -142 5 -10 42 -68 80 -129 39 -62 77 -124 85 -138 8 -15 32 -52 53 -83 20
-31 37 -59 37 -63 0 -3 8 -18 19 -33 30 -43 74 -114 326 -522 131 -212 257
-415 281 -453 l44 -67 1068 0 c840 0 1071 3 1084 13 17 14 66 83 350 502 37
55 94 138 125 185 32 47 125 184 208 305 82 121 151 222 154 225 3 3 45 64 93
135 47 72 113 168 145 215 32 47 112 164 178 260 65 96 142 209 170 250 137
200 204 298 245 359 248 366 253 373 263 354 6 -10 97 -138 204 -285 l194
-267 -93 -138 c-51 -76 -95 -142 -97 -148 -2 -5 -7 -12 -10 -15 -3 -3 -87
-126 -187 -275 -99 -148 -327 -488 -506 -755 -179 -267 -337 -503 -351 -525
-15 -22 -30 -44 -35 -50 -4 -5 -135 -201 -291 -435 -267 -398 -429 -640 -437
-649 -2 -2 -422 -4 -934 -4 -537 0 -930 -4 -930 -9 0 -5 23 -48 51 -96 29 -48
63 -107 77 -132 21 -37 152 -264 220 -380 16 -28 199 -344 252 -435 14 -24 77
-134 140 -244 l115 -200 1085 0 1085 0 105 160 c58 88 110 168 115 177 6 9 49
76 96 147 47 72 138 209 201 305 150 230 286 436 423 645 61 94 151 231 200
305 49 74 145 221 213 325 150 228 309 470 407 620 63 96 297 453 325 495 6 8
78 119 161 245 183 279 351 534 550 837 l150 228 -181 242 c-99 134 -186 250
-193 258 -14 18 5 -8 -660 881 l-505 677 -1030 0 -1029 -1 -274 -395 c-317
-458 -293 -423 -342 -497 -21 -31 -43 -62 -48 -68 -8 -9 -253 -363 -361 -521
-7 -10 -20 -28 -29 -40 -8 -11 -49 -70 -91 -131 -41 -60 -145 -211 -231 -335
-86 -124 -161 -232 -167 -240 -15 -22 -313 -451 -331 -477 -14 -21 -22 -11
-204 265 -105 157 -189 289 -188 292 1 4 185 303 409 666 223 362 416 675 428
695 11 20 107 174 211 343 105 168 197 319 206 334 16 26 53 86 201 325 40 64
79 127 85 140 7 12 72 118 146 236 l132 214 170 3 c94 1 323 5 510 8 187 4
466 8 620 11 448 7 798 15 801 18 1 2 -593 972 -685 1117 -38 61 -242 393
-262 428 l-16 27 -1038 2 c-571 2 -1035 0 -1032 -3z"/>
</g>
</svg>
