<?xml version="1.0" encoding="UTF-8"?>
<svg width="566px" height="153px" viewBox="0 0 566 153" version="1.1" xmlns="http://www.w3.org/2000/svg" xmlns:xlink="http://www.w3.org/1999/xlink">
    <!-- Generator: Sketch 42 (36781) - http://www.bohemiancoding.com/sketch -->
    <title>Group 2</title>
    <desc>Created with Sketch.</desc>
    <defs>
        <linearGradient x1="129.43941%" y1="140.377391%" x2="9.67399464%" y2="6.42652174%" id="linearGradient-1">
            <stop stop-color="#F074AC" offset="0%"></stop>
            <stop stop-color="#EB008B" offset="50%"></stop>
            <stop stop-color="#CD118C" offset="100%"></stop>
        </linearGradient>
        <linearGradient x1="62.4197531%" y1="69.676875%" x2="-73.832716%" y2="-120.606875%" id="linearGradient-2">
            <stop stop-color="#F074AC" offset="0%"></stop>
            <stop stop-color="#EB008B" offset="50%"></stop>
            <stop stop-color="#CD118C" offset="100%"></stop>
        </linearGradient>
        <linearGradient x1="72.38%" y1="77.7486364%" x2="-41.0407792%" y2="-59.1386364%" id="linearGradient-3">
            <stop stop-color="#F074AC" offset="0%"></stop>
            <stop stop-color="#EB008B" offset="50%"></stop>
            <stop stop-color="#CD118C" offset="100%"></stop>
        </linearGradient>
        <linearGradient x1="0%" y1="129.593721%" x2="100%" y2="0%" id="linearGradient-4">
            <stop stop-color="#F074AC" offset="0%"></stop>
            <stop stop-color="#EB008B" offset="41.1220151%"></stop>
            <stop stop-color="#A656BC" offset="100%"></stop>
        </linearGradient>
        <linearGradient x1="147.75601%" y1="-30.7071721%" x2="-106.101202%" y2="215.27623%" id="linearGradient-5">
            <stop stop-color="#A157BE" offset="0%"></stop>
            <stop stop-color="#AD49B6" offset="7.70026219%"></stop>
            <stop stop-color="#EB008B" offset="50%"></stop>
            <stop stop-color="#E35191" offset="100%"></stop>
        </linearGradient>
        <linearGradient x1="35.5337171%" y1="89.5828163%" x2="100%" y2="0%" id="linearGradient-6">
            <stop stop-color="#9F57BF" offset="0%"></stop>
            <stop stop-color="#EB008B" offset="50%"></stop>
            <stop stop-color="#E9018B" offset="54.287684%"></stop>
            <stop stop-color="#CD118C" offset="100%"></stop>
        </linearGradient>
        <linearGradient x1="55.9124982%" y1="46.4781709%" x2="10.0226068%" y2="100%" id="linearGradient-7">
            <stop stop-color="#CD118C" offset="0%"></stop>
            <stop stop-color="#C033A9" offset="53.4219547%"></stop>
            <stop stop-color="#EB008B" offset="100%"></stop>
        </linearGradient>
        <linearGradient x1="50%" y1="0%" x2="50%" y2="100%" id="linearGradient-8">
            <stop stop-color="#CD118C" offset="0%"></stop>
            <stop stop-color="#9B146C" offset="100%"></stop>
        </linearGradient>
        <linearGradient x1="50%" y1="18.7558115%" x2="50%" y2="100%" id="linearGradient-9">
            <stop stop-color="#9F57BF" offset="0%"></stop>
            <stop stop-color="#6A3880" offset="100%"></stop>
        </linearGradient>
    </defs>
    <g id="Page-1" stroke="none" stroke-width="1" fill="none" fill-rule="evenodd">
        <g id="iPad-Pro-Portrait-Copy-7" transform="translate(-103.000000, -110.000000)">
            <g id="Group-2" transform="translate(103.000000, 110.000000)">
                <g id="Objects" fill-rule="nonzero">
                    <g id="Group">
                        <g id="Shape">
                            <g>
                                <polygon fill="url(#linearGradient-1)" points="22.7117647 114.75 0 78.09375 34.9411765 78.09375 59.2411765 114.75"></polygon>
                                <polygon fill="url(#linearGradient-2)" points="47.8058824 153 33.0352941 127.5 67.9764706 127.5 84.4941176 153"></polygon>
                                <polygon fill="url(#linearGradient-3)" points="99.1058824 76.5 73.6941176 41.4375 108.635294 41.4375 134.841176 76.5"></polygon>
                                <polygon fill="url(#linearGradient-4)" points="73.6380938 41.3992426 58.3632764 63.4625836 22.8454875 114.765396 59.4683213 114.765396 92.1250052 66.8243163"></polygon>
                                <polygon fill="url(#linearGradient-5)" points="50.1882353 0.31875 0 78.09375 34.9411765 78.09375 66.0705882 27.571875"></polygon>
                                <polygon fill="url(#linearGradient-6)" points="99.1058824 76.5 47.8058824 153 84.6529412 153 134.841176 76.5"></polygon>
                                <polygon fill="url(#linearGradient-7)" points="66.161551 27.7257447 50.1017786 0.178631817 85.2689433 0.178631817 101.805882 27.09375"></polygon>
                            </g>
                        </g>
                    </g>
                </g>
                <path d="M367.2,57.16 L367.2,95.56 C367.2,101.240028 369.039982,105.739983 372.72,109.06 C376.400018,112.380017 381.23997,114.04 387.24,114.04 C393.24003,114.04 397.859984,112.320017 401.1,108.88 C404.340016,105.439983 405.96,101.080026 405.96,95.8 L405.96,87.28 L396.48,87.28 L394.56,82 L411.12,82 L411.12,118 L407.04,118 L405.84,111.4 C401.91998,116.600026 395.680043,119.2 387.12,119.2 C380.079965,119.2 374.100025,117.20002 369.18,113.2 C364.259975,109.19998 361.8,103.24004 361.8,95.32 L361.8,57.64 C361.8,47.3999488 365.279965,40.1600212 372.24,35.92 C375.840018,33.91999 380.119975,32.92 385.08,32.92 C391.240031,32.92 396.919974,34.2399868 402.12,36.88 L400.56,40.72 C395.999977,38.7999904 391.560022,37.8000004 387.24,37.72 C373.879933,37.72 367.2,44.1999352 367.2,57.16 Z M427.9,34 L433.3,34 L433.3,118 L427.9,118 L427.9,34 Z M452.96,57.88 L458.36,57.88 L458.36,118 L452.96,118 L452.96,57.88 Z M452.36,36.04 C452.36,35.1599956 452.699997,34.4000032 453.38,33.76 C454.060003,33.1199968 454.839996,32.8 455.72,32.8 C456.600004,32.8 457.359997,33.1199968 458,33.76 C458.640003,34.4000032 458.96,35.1599956 458.96,36.04 C458.96,36.9200044 458.640003,37.6999966 458,38.38 C457.359997,39.0600034 456.600004,39.4 455.72,39.4 C454.839996,39.4 454.060003,39.0600034 453.38,38.38 C452.699997,37.6999966 452.36,36.9200044 452.36,36.04 Z M491.26,56.92 C498.140034,56.92 503.739978,58.2799864 508.06,61 L508.06,34 L513.46,34 L513.46,118 C506.579966,118.960005 500.220029,119.44 494.38,119.44 C488.539971,119.44 483.260024,118.240012 478.54,115.84 C472.299969,112.639984 469.18,107.08004 469.18,99.16 L469.18,76.48 C469.18,68.079958 472.579966,62.3200156 479.38,59.2 C482.740017,57.6799924 486.699977,56.92 491.26,56.92 Z M508.06,65.8 C503.179976,63.1599868 497.460033,61.84 490.9,61.84 C489.699994,61.84 488.500006,61.8799996 487.3,61.96 C483.699982,62.2800016 480.660012,63.7199872 478.18,66.28 C475.699988,68.8400128 474.46,72.3599776 474.46,76.84 L474.46,99.28 C474.46,104.160024 476.179983,107.879987 479.62,110.44 C483.140018,113.080013 487.419975,114.4 492.46,114.4 C497.500025,114.4 502.699973,114.000004 508.06,113.2 L508.06,65.8 Z M562.16,113.8 C555.999969,117.560019 549.560034,119.44 542.84,119.44 C528.91993,119.44 521.96,113.600058 521.96,101.92 L521.96,77.32 C521.96,70.8399676 523.97998,65.800018 528.02,62.2 C532.06002,58.599982 537.399967,56.8 544.04,56.8 C550.680033,56.8 555.859981,58.5799822 559.58,62.14 C563.300019,65.7000178 565.16,70.6399684 565.16,76.96 L565.16,91.36 L527.36,93.4 L527.36,102.04 C527.36,106.600023 528.839985,109.85999 531.8,111.82 C534.760015,113.78001 538.119981,114.76 541.88,114.76 C547.640029,114.76 553.679968,113.040017 560,109.6 L562.16,113.8 Z M527.36,77.32 L527.36,88.12 L559.76,86.44 L559.76,76.36 C559.76,70.9999732 558.120016,67.1800114 554.84,64.9 C551.559984,62.6199886 547.740022,61.48 543.38,61.48 C539.019978,61.48 535.260016,62.7599872 532.1,65.32 C528.939984,67.8800128 527.36,71.8799728 527.36,77.32 Z" id="Glide" fill="url(#linearGradient-8)"></path>
                <path d="M181.48,118 L168.28,118 L168.28,47.32 L151,47.32 L151,34 L199.24,34 L199.24,47.32 L181.48,47.32 L181.48,118 Z M243.5,82.24 L243.5,118 C235.179958,118.800004 228.540025,119.2 223.58,119.2 C221.339989,119.2 219.460008,119.120001 217.94,118.96 C204.819934,117.519993 197.940003,111.000058 197.3,99.4 L197.3,87.76 C197.3,79.8399604 200.059972,74.5200136 205.58,71.8 C207.900012,70.5199936 210.539985,69.88 213.5,69.88 C213.980002,69.88 214.419998,69.9199996 214.82,70 C218.340018,70.1600008 221.379987,70.5799966 223.94,71.26 C226.500013,71.9400034 228.619992,72.7599952 230.3,73.72 C230.3,68.5999744 226.020043,66.04 217.46,66.04 L218.54,56.92 C221.580015,56.92 224.319988,57.0999982 226.76,57.46 C229.200012,57.8200018 231.259992,58.4199958 232.94,59.26 C234.620008,60.1000042 236.099994,60.9599956 237.38,61.84 C238.660006,62.7200044 239.659996,63.8799928 240.38,65.32 C241.100004,66.7600072 241.699998,68.0199946 242.18,69.1 C242.660002,70.1800054 242.979999,71.6399908 243.14,73.48 C243.300001,75.3200092 243.4,76.7599948 243.44,77.8 C243.48,78.8400052 243.5,80.3199904 243.5,82.24 Z M230.3,106.36 L230.3,87.76 C229.019994,86.8799956 227.36001,86.0600038 225.32,85.3 C223.27999,84.5399962 221.100012,83.960002 218.78,83.56 C218.139997,83.4799996 217.500003,83.44 216.86,83.44 C215.419993,83.44 214.140006,83.7599968 213.02,84.4 C211.419992,85.3600048 210.62,87.039988 210.62,89.44 L210.62,96.04 C210.62,103.400037 214.859958,107.08 223.34,107.08 C225.42001,107.08 227.739987,106.840002 230.3,106.36 Z M252.24,102.76 L265.44,101.44 C265.44,102.880007 266.179993,104.239994 267.66,105.52 C269.140007,106.800006 271.399985,107.44 274.44,107.44 C277.080013,107.44 279.119993,106.780007 280.56,105.46 C282.000007,104.139993 282.72,102.600009 282.72,100.84 C282.72,98.5199884 281.780009,96.660007 279.9,95.26 C278.019991,93.859993 275.720014,92.7400042 273,91.9 C270.279986,91.0599958 267.540014,90.1000054 264.78,89.02 C262.019986,87.9399946 259.580011,86.1600124 257.46,83.68 C255.339989,81.1999876 254.080002,78.0400192 253.68,74.2 C253.6,73.7199976 253.56,73.2400024 253.56,72.76 C253.56,68.8399804 255.119984,65.2400164 258.24,61.96 C261.600017,58.2799816 266.919964,56.44 274.2,56.44 C276.760013,56.44 279.159989,56.739997 281.4,57.34 C283.640011,57.940003 285.239995,58.5199972 286.2,59.08 L287.64,59.92 L283.8,72.16 C281.959991,70.3199908 278.760023,69.4 274.2,69.4 C271.959989,69.4 270.300005,69.7199968 269.22,70.36 C268.139995,71.0000032 267.659999,71.6999962 267.78,72.46 C267.900001,73.2200038 267.96,73.8799972 267.96,74.44 C268.200001,75.640006 269.379989,76.739995 271.5,77.74 C273.620011,78.740005 276.039986,79.7199952 278.76,80.68 C281.480014,81.6400048 284.199986,82.8399928 286.92,84.28 C289.640014,85.7200072 291.939991,87.8799856 293.82,90.76 C295.700009,93.6400144 296.64,97.07998 296.64,101.08 C296.64,106.280026 294.760019,110.699982 291,114.34 C287.239981,117.980018 281.720036,119.8 274.44,119.8 C267.639966,119.8 262.28002,118.160016 258.36,114.88 C254.43998,111.599984 252.400001,107.560024 252.24,102.76 Z M356.86,118 L340.3,118 L322.3,87.52 L320.62,89.2 L320.62,118 L307.42,118 L307.42,34 L320.62,34 L320.62,72.16 L338.5,55.6 L348.22,64.84 L332.5,78.16 C344.180058,97.4400964 352.299977,110.719964 356.86,118 Z" id="Task" fill="url(#linearGradient-9)"></path>
            </g>
        </g>
    </g>
</svg>